# xmcd CD database file
#
# Track frame offsets:
#	150
#	13537
#	26999
#	37268
#	48355
#	60548
#	77577
#	92393
#	106632
#	117622
#	132362
#	143954
#	155828
#	166118
#	176911
#	187225
#	195729
#	211744
#	225796
#	236923
#	252491
#
# Disc length: 3541 seconds
#
# Revision: 0
# Processed by: cddbd v1.5.2PL0 Copyright (c) Steve Scherf et al.
# Submitted via: CDex 1.70beta2
#
DISCID=250dd315
DTITLE=Ella Fitzgerald - The Best Of Irving Berlin
DYEAR=2010
DGENRE=Jazz
TTITLE0=I've Got My Love To Keep Me Warm
TTITLE1=I'm Putting All My Eggs In One Basket
TTITLE2=Puttin'On The Ritz
TTITLE3=All By Myself
TTITLE4=Alexanders's Ragtime Band
TTITLE5=Cheek To Cheek
TTITLE6=Suppertime
TTITLE7=How Deep Is The Ocean?
TTITLE8=It's A Lovely Day
TTITLE9=Change Partners
TTITLE10=Top Hat White Tie And Tails
TTITLE11=Lazy
TTITLE12=Reaching For The Moon
TTITLE13=Heatwave
TTITLE14=Let Yourself Go
TTITLE15=Russian Lullaby
TTITLE16=You Keep Coming Back Like A Song
TTITLE17=Always
TTITLE18=The Song is Ended
TTITLE19=Isn't This A Lovely Day
TTITLE20=Let's Face The Music And Dance
EXTD=YEAR: 2010
EXTT0=
EXTT1=
EXTT2=
EXTT3=
EXTT4=
EXTT5=
EXTT6=
EXTT7=
EXTT8=
EXTT9=
EXTT10=
EXTT11=
EXTT12=
EXTT13=
EXTT14=
EXTT15=
EXTT16=
EXTT17=
EXTT18=
EXTT19=
EXTT20=
PLAYORDER=
